<svg width="600" height="600" viewBox="0 0 600 600" fill="none" xmlns="http://www.w3.org/2000/svg">
<rect width="600" height="600" fill="black"/>
<g clip-path="url(#clip0_22_585)">
<mask id="mask0_22_585" style="mask-type:luminance" maskUnits="userSpaceOnUse" x="0" y="15" width="600" height="569">
<path d="M600 15H0V584H600V15Z" fill="white"/>
</mask>
<g mask="url(#mask0_22_585)">
<path d="M600 15H0V584H600V15Z" fill="black"/>
<path d="M504.707 239.382L546.558 226.668L544.32 219.289L502.469 232L504.707 239.382Z" fill="white"/>
<path d="M498.838 221.802L539.425 205.49L536.552 198.338L495.965 214.646L498.838 221.802Z" fill="white"/>
<path d="M491.464 204.804L530.47 185.013L526.99 178.139L487.973 197.929L491.464 204.804Z" fill="white"/>
<path d="M482.637 188.513L519.77 165.402L515.703 158.852L478.572 181.963L482.637 188.513Z" fill="white"/>
<path d="M472.419 173.048L507.399 146.79L502.773 140.631L467.795 166.883L472.419 173.048Z" fill="white"/>
<path d="M460.897 158.54L493.457 129.323L488.306 123.584L455.746 152.799L460.897 158.54Z" fill="white"/>
<path d="M448.152 145.087L478.041 113.156L472.412 107.875L442.525 139.812L448.152 145.087Z" fill="white"/>
<path d="M434.283 132.798L461.277 98.3798L455.214 93.6211L428.219 128.039L434.283 132.798Z" fill="white"/>
<path d="M419.399 121.765L443.295 85.1201L436.837 80.9082L412.941 117.553L419.399 121.765Z" fill="white"/>
<path d="M403.609 112.069L424.216 73.4797L417.411 69.8457L396.807 108.435L403.609 112.069Z" fill="white"/>
<path d="M387.035 103.792L404.199 63.5615L397.104 60.5254L379.941 100.764L387.035 103.792Z" fill="white"/>
<path d="M369.799 96.987L383.393 55.4011L376.059 53.0117L362.473 94.5865L369.799 96.987Z" fill="white"/>
<path d="M344.531 89.9599L352.04 91.7113L361.96 49.103L354.449 47.3516L344.531 89.9599Z" fill="white"/>
<path d="M326.252 86.917L333.883 87.9994L340.048 44.6932L332.425 43.5996L326.252 86.917Z" fill="white"/>
<path d="M307.779 85.4759L315.47 85.8915L317.85 42.2097L310.157 41.7852L307.779 85.4759Z" fill="white"/>
<path d="M295.506 41.6719L287.814 41.9141L289.252 85.6449L296.954 85.3915L295.506 41.6719Z" fill="white"/>
<path d="M265.559 44.0055L270.812 87.434L278.463 86.5138L273.221 43.0742L265.559 44.0055Z" fill="white"/>
<path d="M243.578 48.013L252.596 90.8236L260.136 89.2433L251.134 46.4238L243.578 48.013Z" fill="white"/>
<path d="M242.118 93.5532L229.405 51.6895L222.027 53.9277L234.738 95.7758L242.118 93.5532Z" fill="white"/>
<path d="M224.543 99.4188L208.234 58.8242L201.078 61.6981L217.387 102.293L224.543 99.4188Z" fill="white"/>
<path d="M207.547 106.798L187.76 67.7812L180.887 71.2642L200.664 110.278L207.547 106.798Z" fill="white"/>
<path d="M191.261 115.627L168.154 78.4844L161.605 82.5541L184.717 119.706L191.261 115.627Z" fill="white"/>
<path d="M175.802 125.844L149.548 90.8594L143.391 95.4847L169.637 130.472L175.802 125.844Z" fill="white"/>
<path d="M161.295 137.369L132.083 104.803L126.346 109.953L155.555 142.521L161.295 137.369Z" fill="white"/>
<path d="M147.845 150.115L115.921 120.211L110.641 125.839L142.572 155.742L147.845 150.115Z" fill="white"/>
<path d="M135.556 163.985L101.144 136.986L96.3867 143.05L130.798 170.048L135.556 163.985Z" fill="white"/>
<path d="M124.527 178.873L87.8888 154.973L83.6777 161.432L120.316 185.336L124.527 178.873Z" fill="white"/>
<path d="M114.835 194.665L76.2525 174.055L72.6191 180.858L111.201 201.473L114.835 194.665Z" fill="white"/>
<path d="M106.557 211.245L66.3255 194.068L63.2988 201.163L103.521 218.331L106.557 211.245Z" fill="white"/>
<path d="M99.7518 228.485L58.174 214.889L55.7852 222.223L97.3518 235.813L99.7518 228.485Z" fill="white"/>
<path d="M50.1289 243.831L92.7289 253.75L94.48 246.24L51.88 236.32L50.1289 243.831Z" fill="white"/>
<path d="M46.377 265.871L89.6858 272.037L90.7792 264.404L47.4703 258.238L46.377 265.871Z" fill="white"/>
<path d="M44.5625 288.136L88.2358 290.514L88.6603 282.815L44.9781 280.445L44.5625 288.136Z" fill="white"/>
<path d="M44.4453 302.767L44.6986 310.482L88.412 309.044L88.1586 301.34L44.4453 302.767Z" fill="white"/>
<path d="M45.8555 325.081L46.7755 332.734L90.1955 327.49L89.2755 319.838L45.8555 325.081Z" fill="white"/>
<path d="M49.2012 347.186L50.8012 354.727L93.5923 345.703L92.0034 338.166L49.2012 347.186Z" fill="white"/>
<path d="M54.4648 368.896L56.7026 376.275L98.5626 363.571L96.316 356.191L54.4648 368.896Z" fill="white"/>
<path d="M102.186 373.766L61.5996 390.073L64.4729 397.23L105.06 380.923L102.186 373.766Z" fill="white"/>
<path d="M109.562 390.768L70.5527 410.549L74.035 417.439L113.042 397.658L109.562 390.768Z" fill="white"/>
<path d="M118.388 407.059L81.252 430.174L85.3208 436.724L122.456 413.609L118.388 407.059Z" fill="white"/>
<path d="M128.603 422.52L93.625 448.778L98.2494 454.944L133.229 428.685L128.603 422.52Z" fill="white"/>
<path d="M140.128 437.029L107.568 466.244L112.717 471.985L145.279 442.768L140.128 437.029Z" fill="white"/>
<path d="M152.878 450.479L122.982 482.416L128.609 487.69L158.498 455.753L152.878 450.479Z" fill="white"/>
<path d="M166.736 462.771L139.742 497.189L145.804 501.948L172.798 467.53L166.736 462.771Z" fill="white"/>
<path d="M181.622 473.803L157.727 510.448L164.184 514.66L188.084 478.015L181.622 473.803Z" fill="white"/>
<path d="M197.413 483.498L176.807 522.088L183.609 525.729L204.22 487.132L197.413 483.498Z" fill="white"/>
<path d="M213.988 491.777L196.814 532.007L203.899 535.035L221.074 494.805L213.988 491.777Z" fill="white"/>
<path d="M231.222 498.584L217.629 540.17L224.962 542.559L238.549 500.982L231.222 498.584Z" fill="white"/>
<path d="M239.059 546.464L246.567 548.216L256.496 505.608L248.987 503.867L239.059 546.464Z" fill="white"/>
<path d="M260.967 550.876L268.598 551.969L274.762 508.652L267.131 507.559L260.967 550.876Z" fill="white"/>
<path d="M283.174 553.361L290.865 553.776L293.234 510.094L285.543 509.67L283.174 553.361Z" fill="white"/>
<path d="M304.061 510.177L305.507 553.899L313.221 553.646L311.763 509.924L304.061 510.177Z" fill="white"/>
<path d="M322.562 509.057L327.805 552.485L335.451 551.565L330.214 508.137L322.562 509.057Z" fill="white"/>
<path d="M340.891 506.331L349.9 549.142L357.44 547.544L348.431 504.742L340.891 506.331Z" fill="white"/>
<path d="M358.908 502.012L371.619 543.872L378.997 541.633L366.286 499.785L358.908 502.012Z" fill="white"/>
<path d="M376.479 496.149L392.783 536.744L399.939 533.87L383.634 493.275L376.479 496.149Z" fill="white"/>
<path d="M393.475 488.775L413.252 527.789L420.141 524.309L400.348 485.283L393.475 488.775Z" fill="white"/>
<path d="M409.764 479.944L432.875 517.085L439.424 513.015L416.313 475.879L409.764 479.944Z" fill="white"/>
<path d="M425.221 469.725L451.474 504.71L457.647 500.084L431.385 465.1L425.221 469.725Z" fill="white"/>
<path d="M439.73 458.199L468.939 490.765L474.677 485.613L445.468 453.047L439.73 458.199Z" fill="white"/>
<path d="M453.178 445.452L485.109 475.347L490.382 469.732L458.451 439.824L453.178 445.452Z" fill="white"/>
<path d="M465.465 431.585L499.876 458.584L504.643 452.52L470.223 425.52L465.465 431.585Z" fill="white"/>
<path d="M476.496 416.695L513.134 440.596L517.345 434.137L480.707 410.236L476.496 416.695Z" fill="white"/>
<path d="M486.188 400.901L524.77 421.512L528.41 414.706L489.821 394.098L486.188 400.901Z" fill="white"/>
<path d="M494.467 384.324L534.689 401.492L537.716 394.406L497.493 377.238L494.467 384.324Z" fill="white"/>
<path d="M501.27 367.086L542.847 380.682L545.236 373.347L503.667 359.758L501.27 367.086Z" fill="white"/>
<path d="M506.545 349.325L549.145 359.245L550.896 351.734L508.296 341.814L506.545 349.325Z" fill="white"/>
<path d="M510.254 331.168L553.563 337.333L554.645 329.701L511.336 323.535L510.254 331.168Z" fill="white"/>
<path d="M512.367 312.751L556.041 315.123L556.454 307.417L512.772 305.061L512.367 312.751Z" fill="white"/>
<path d="M512.604 286.525L512.857 294.229L556.579 292.782L556.326 285.078L512.604 286.525Z" fill="white"/>
<path d="M510.818 268.075L511.749 275.728L555.169 270.485L554.238 262.832L510.818 268.075Z" fill="white"/>
<path d="M507.43 249.854L509.019 257.396L551.821 248.379L550.232 240.844L507.43 249.854Z" fill="white"/>
<path d="M487.374 237.623L455.301 247.372L457.012 253.019L489.096 243.282L487.374 237.623Z" fill="white"/>
<path d="M450.314 234.065L452.521 239.55L483.632 227.048L481.426 221.562L450.314 234.065Z" fill="white"/>
<path d="M444.193 221.25L446.86 226.529L476.762 211.348L474.091 206.08L444.193 221.25Z" fill="white"/>
<path d="M465.452 191.299L436.98 209.013L440.092 214.034L468.563 196.32L465.452 191.299Z" fill="white"/>
<path d="M455.534 177.328L428.723 197.452L432.265 202.18L459.076 182.056L455.534 177.328Z" fill="white"/>
<path d="M444.448 164.271L419.49 186.665L423.437 191.057L448.397 168.666L444.448 164.271Z" fill="white"/>
<path d="M432.265 152.23L409.352 176.709L413.674 180.747L436.578 156.269L432.265 152.23Z" fill="white"/>
<path d="M419.081 141.303L398.395 167.683L403.041 171.337L423.728 144.948L419.081 141.303Z" fill="white"/>
<path d="M404.996 131.561L386.688 159.642L391.636 162.871L409.945 134.79L404.996 131.561Z" fill="white"/>
<path d="M390.114 123.086L374.314 152.665L379.528 155.45L395.326 125.869L390.114 123.086Z" fill="white"/>
<path d="M374.548 115.938L361.391 146.784L366.826 149.102L379.984 118.256L374.548 115.938Z" fill="white"/>
<path d="M358.421 110.176L347.996 142.044L353.614 143.887L364.038 112.007L358.421 110.176Z" fill="white"/>
<path d="M341.852 105.842L334.252 138.499L340.001 139.833L347.612 107.175L341.852 105.842Z" fill="white"/>
<path d="M324.969 102.969L320.242 136.162L326.093 137.002L330.818 103.798L324.969 102.969Z" fill="white"/>
<path d="M306.084 135.06L311.984 135.373L313.797 101.895L307.895 101.582L306.084 135.06Z" fill="white"/>
<path d="M290.771 101.678L291.883 135.195L297.783 134.993L296.683 101.484L290.771 101.678Z" fill="white"/>
<path d="M273.727 103.279L277.744 136.564L283.615 135.855L279.598 102.57L273.727 103.279Z" fill="white"/>
<path d="M256.879 106.351L263.781 139.159L269.57 137.943L262.657 105.135L256.879 106.351Z" fill="white"/>
<path d="M240.361 110.874L250.097 142.964L255.755 141.253L246.019 109.162L240.361 110.874Z" fill="white"/>
<path d="M236.803 147.955L242.289 145.748L229.789 114.631L224.303 116.838L236.803 147.955Z" fill="white"/>
<path d="M223.989 154.073L229.262 151.406L214.1 121.498L208.822 124.17L223.989 154.073Z" fill="white"/>
<path d="M211.756 161.292L216.776 158.181L199.065 129.697L194.045 132.825L211.756 161.292Z" fill="white"/>
<path d="M200.2 169.547L204.927 166.004L184.807 139.186L180.08 142.742L200.2 169.547Z" fill="white"/>
<path d="M189.412 178.781L193.815 174.832L171.426 149.869L167.023 153.817L189.412 178.781Z" fill="white"/>
<path d="M179.464 188.918L183.501 184.606L159.03 161.686L154.99 165.998L179.464 188.918Z" fill="white"/>
<path d="M170.436 199.883L174.074 195.238L147.705 174.545L144.061 179.212L170.436 199.883Z" fill="white"/>
<path d="M162.401 211.597L165.63 206.647L137.543 188.33L134.314 193.284L162.401 211.597Z" fill="white"/>
<path d="M155.415 223.963L158.197 218.748L128.642 202.945L125.842 208.162L155.415 223.963Z" fill="white"/>
<path d="M149.537 236.892L151.855 231.455L121.024 218.295L118.697 223.732L149.537 236.892Z" fill="white"/>
<path d="M144.806 250.284L146.637 244.661L114.774 234.25L112.943 239.858L144.806 250.284Z" fill="white"/>
<path d="M141.256 264.04L142.59 258.279L109.941 250.678L108.607 256.439L141.256 264.04Z" fill="white"/>
<path d="M138.921 278.048L139.75 272.196L106.563 267.471L105.734 273.323L138.921 278.048Z" fill="white"/>
<path d="M104.346 290.395L137.826 292.207L138.141 286.306L104.67 284.494L104.346 290.395Z" fill="white"/>
<path d="M104.254 301.612L104.447 307.524L137.947 306.413L137.754 300.51L104.254 301.612Z" fill="white"/>
<path d="M105.33 318.716L106.039 324.577L139.33 320.558L138.619 314.682L105.33 318.716Z" fill="white"/>
<path d="M107.898 335.645L109.114 341.424L141.916 334.52L140.701 328.73L107.898 335.645Z" fill="white"/>
<path d="M113.637 357.945L145.721 348.208L144.01 342.549L111.926 352.286L113.637 357.945Z" fill="white"/>
<path d="M150.709 361.505L148.498 356.018L117.387 368.52L119.598 374.006L150.709 361.505Z" fill="white"/>
<path d="M156.827 374.321L154.16 369.047L124.258 384.208L126.924 389.482L156.827 374.321Z" fill="white"/>
<path d="M135.586 404.267L164.044 386.552L160.92 381.531L132.455 399.246L135.586 404.267Z" fill="white"/>
<path d="M145.488 418.24L172.299 398.116L168.756 393.389L141.945 413.515L145.488 418.24Z" fill="white"/>
<path d="M156.574 431.297L181.534 408.906L177.585 404.512L152.627 426.894L156.574 431.297Z" fill="white"/>
<path d="M168.756 443.337L191.672 418.859L187.35 414.82L164.445 439.307L168.756 443.337Z" fill="white"/>
<path d="M181.942 454.268L202.628 427.887L197.982 424.242L177.295 450.616L181.942 454.268Z" fill="white"/>
<path d="M196.025 464.008L214.334 435.916L209.385 432.697L191.076 460.778L196.025 464.008Z" fill="white"/>
<path d="M210.911 472.484L226.708 442.903L221.497 440.113L205.697 469.699L210.911 472.484Z" fill="white"/>
<path d="M226.475 479.631L239.632 448.785L234.197 446.467L221.039 477.308L226.475 479.631Z" fill="white"/>
<path d="M242.6 485.393L253.014 453.526L247.407 451.682L236.982 483.559L242.6 485.393Z" fill="white"/>
<path d="M259.17 489.725L266.77 457.068L261.021 455.734L253.41 488.39L259.17 489.725Z" fill="white"/>
<path d="M276.054 492.6L280.779 459.407L274.93 458.566L270.203 491.771L276.054 492.6Z" fill="white"/>
<path d="M287.219 493.669L293.119 493.994L294.941 460.507L289.041 460.191L287.219 493.669Z" fill="white"/>
<path d="M303.232 460.568L304.344 494.086L310.244 493.884L309.132 460.375L303.232 460.568Z" fill="white"/>
<path d="M317.406 459.713L321.435 493.008L327.295 492.29L323.277 459.004L317.406 459.713Z" fill="white"/>
<path d="M344.142 489.217L337.24 456.408L331.451 457.624L338.365 490.433L344.142 489.217Z" fill="white"/>
<path d="M360.661 484.687L350.925 452.607L345.268 454.319L355.003 486.398L360.661 484.687Z" fill="white"/>
<path d="M371.236 480.94L376.723 478.732L364.223 447.615L358.736 449.822L371.236 480.94Z" fill="white"/>
<path d="M377.031 441.494L371.758 444.161L386.929 474.069L392.191 471.402L377.031 441.494Z" fill="white"/>
<path d="M389.265 434.277L384.236 437.405L401.947 465.87L406.967 462.743L389.265 434.277Z" fill="white"/>
<path d="M400.82 426.02L396.094 429.562L416.214 456.39L420.94 452.834L400.82 426.02Z" fill="white"/>
<path d="M411.611 416.787L407.209 420.735L429.598 445.699L434 441.752L411.611 416.787Z" fill="white"/>
<path d="M421.56 406.652L417.52 410.964L441.995 433.884L446.033 429.572L421.56 406.652Z" fill="white"/>
<path d="M430.588 395.684L426.943 400.331L453.319 421.022L456.963 416.354L430.588 395.684Z" fill="white"/>
<path d="M438.623 383.975L435.395 388.924L463.481 407.237L466.699 402.287L438.623 383.975Z" fill="white"/>
<path d="M445.604 371.605L442.822 376.82L472.396 392.623L475.18 387.409L445.604 371.605Z" fill="white"/>
<path d="M451.488 358.676L449.17 364.112L479.999 377.273L482.328 371.836L451.488 358.676Z" fill="white"/>
<path d="M456.219 345.285L454.377 350.904L486.248 361.319L488.079 355.701L456.219 345.285Z" fill="white"/>
<path d="M459.763 331.529L458.43 337.29L491.081 344.892L492.414 339.131L459.763 331.529Z" fill="white"/>
<path d="M462.098 317.52L461.27 323.372L494.456 328.097L495.285 322.245L462.098 317.52Z" fill="white"/>
<path d="M462.887 309.257L496.358 311.08L496.682 305.177L463.2 303.365L462.887 309.257Z" fill="white"/>
<path d="M463.07 289.158L463.273 295.06L496.773 293.948L496.581 288.045L463.07 289.158Z" fill="white"/>
<path d="M461.703 275.02L462.412 280.89L495.69 276.863L494.992 270.986L461.703 275.02Z" fill="white"/>
<path d="M493.124 259.926L491.902 254.145L459.098 261.048L460.322 266.827L493.124 259.926Z" fill="white"/>
<path d="M441.086 252.527L416.957 259.862L418.241 264.114L442.381 256.779L441.086 252.527Z" fill="white"/>
<path d="M413.205 249.843L414.865 253.977L438.265 244.573L436.605 240.443L413.205 249.843Z" fill="white"/>
<path d="M410.609 244.173L433.098 232.762L431.098 228.795L408.594 240.204L410.609 244.173Z" fill="white"/>
<path d="M424.584 217.678L403.168 231L405.517 234.779L426.932 221.456L424.584 217.678Z" fill="white"/>
<path d="M399.628 225.865L419.801 210.722L417.135 207.166L396.957 222.313L399.628 225.865Z" fill="white"/>
<path d="M408.791 197.348L390.016 214.193L392.98 217.503L411.756 200.657L408.791 197.348Z" fill="white"/>
<path d="M399.625 188.289L382.396 206.704L385.639 209.74L402.874 191.325L399.625 188.289Z" fill="white"/>
<path d="M389.71 180.066L374.154 199.917L377.645 202.662L393.201 182.811L389.71 180.066Z" fill="white"/>
<path d="M379.112 172.738L365.334 193.865L369.061 196.298L382.838 175.172L379.112 172.738Z" fill="white"/>
<path d="M367.917 166.363L356.035 188.614L359.953 190.71L371.835 168.459L367.917 166.363Z" fill="white"/>
<path d="M356.204 160.986L346.307 184.189L350.396 185.929L360.293 162.727L356.204 160.986Z" fill="white"/>
<path d="M344.077 156.652L336.232 180.624L340.455 182.011L348.297 158.028L344.077 156.652Z" fill="white"/>
<path d="M325.887 177.96L330.218 178.962L335.947 154.402L331.604 153.391L325.887 177.96Z" fill="white"/>
<path d="M315.355 176.202L319.758 176.829L323.311 151.855L318.911 151.229L315.355 176.202Z" fill="white"/>
<path d="M304.699 175.373L309.144 175.595L310.508 150.428L306.064 150.186L304.699 175.373Z" fill="white"/>
<path d="M293.186 150.263L294.026 175.468L298.459 175.326L297.63 150.121L293.186 150.263Z" fill="white"/>
<path d="M280.361 151.458L283.388 176.503L287.801 175.968L284.775 150.932L280.361 151.458Z" fill="white"/>
<path d="M267.689 153.771L272.881 178.442L277.232 177.531L272.032 152.859L267.689 153.771Z" fill="white"/>
<path d="M255.262 157.183L262.595 181.316L266.846 180.031L259.513 155.887L255.262 157.183Z" fill="white"/>
<path d="M252.581 185.067L256.715 183.408L247.312 160.004L243.184 161.664L252.581 185.067Z" fill="white"/>
<path d="M242.946 189.675L246.912 187.663L235.506 165.168L231.539 167.182L242.946 189.675Z" fill="white"/>
<path d="M233.746 195.107L237.524 192.758L224.202 171.338L220.424 173.687L233.746 195.107Z" fill="white"/>
<path d="M225.052 201.316L228.607 198.649L213.456 178.467L209.9 181.134L225.052 201.316Z" fill="white"/>
<path d="M216.934 208.26L220.234 205.293L203.401 186.516L200.092 189.481L216.934 208.26Z" fill="white"/>
<path d="M209.45 215.885L212.486 212.635L194.075 195.396L191.039 198.646L209.45 215.885Z" fill="white"/>
<path d="M202.659 224.136L205.392 220.633L185.546 205.074L182.812 208.566L202.659 224.136Z" fill="white"/>
<path d="M196.614 232.947L199.043 229.222L177.921 215.441L175.492 219.169L196.614 232.947Z" fill="white"/>
<path d="M191.36 242.25L193.456 238.332L171.209 226.447L169.109 230.361L191.36 242.25Z" fill="white"/>
<path d="M186.936 251.976L188.676 247.886L165.498 237.986L163.738 242.076L186.936 251.976Z" fill="white"/>
<path d="M183.377 262.051L184.752 257.828L160.786 249.984L159.41 254.207L183.377 262.051Z" fill="white"/>
<path d="M156.15 266.68L180.704 272.401L181.706 268.067L157.153 262.348L156.15 266.68Z" fill="white"/>
<path d="M153.98 279.384L178.949 282.94L179.576 278.537L154.607 274.98L153.98 279.384Z" fill="white"/>
<path d="M152.943 292.228L178.126 293.595L178.368 289.15L153.166 287.785L152.943 292.228Z" fill="white"/>
<path d="M152.869 300.665L153.011 305.11L178.222 304.27L178.071 299.836L152.869 300.665Z" fill="white"/>
<path d="M153.682 313.53L154.217 317.944L179.237 314.917L178.722 310.494L153.682 313.53Z" fill="white"/>
<path d="M155.611 326.268L156.531 330.611L181.198 325.419L180.278 321.064L155.611 326.268Z" fill="white"/>
<path d="M159.938 343.041L184.067 335.713L182.783 331.461L158.643 338.789L159.938 343.041Z" fill="white"/>
<path d="M187.814 345.718L186.156 341.598L162.756 351.002L164.416 355.123L187.814 345.718Z" fill="white"/>
<path d="M169.93 366.771L192.419 355.36L190.419 351.393L167.914 362.801L169.93 366.771Z" fill="white"/>
<path d="M176.441 377.881L197.856 364.568L195.507 360.789L174.092 374.103L176.441 377.881Z" fill="white"/>
<path d="M183.89 388.402L204.063 373.259L201.397 369.703L181.219 384.851L183.89 388.402Z" fill="white"/>
<path d="M192.23 398.221L211.006 381.38L208.041 378.066L189.266 394.912L192.23 398.221Z" fill="white"/>
<path d="M201.393 407.279L218.636 388.864L215.38 385.828L198.145 404.243L201.393 407.279Z" fill="white"/>
<path d="M211.313 415.502L226.88 395.645L223.378 392.906L207.822 412.757L211.313 415.502Z" fill="white"/>
<path d="M221.91 422.829L235.688 401.703L231.961 399.273L218.184 420.4L221.91 422.829Z" fill="white"/>
<path d="M233.107 429.207L244.989 406.956L241.072 404.871L229.189 427.111L233.107 429.207Z" fill="white"/>
<path d="M244.814 434.581L254.712 411.379L250.623 409.639L240.734 432.841L244.814 434.581Z" fill="white"/>
<path d="M256.945 438.907L264.778 414.944L260.558 413.568L252.725 437.529L256.945 438.907Z" fill="white"/>
<path d="M265.084 441.173L269.406 442.175L275.135 417.615L270.802 416.604L265.084 441.173Z" fill="white"/>
<path d="M277.709 443.714L282.111 444.341L285.667 419.367L281.265 418.74L277.709 443.714Z" fill="white"/>
<path d="M290.516 445.144L294.949 445.366L296.316 420.199L291.882 419.957L290.516 445.144Z" fill="white"/>
<path d="M302.559 420.246L303.399 445.451L307.832 445.308L307.003 420.104L302.559 420.246Z" fill="white"/>
<path d="M313.225 419.597L316.251 444.642L320.653 444.106L317.638 419.07L313.225 419.597Z" fill="white"/>
<path d="M323.793 418.03L328.984 442.701L333.335 441.781L328.135 417.109L323.793 418.03Z" fill="white"/>
<path d="M345.759 438.388L338.433 414.254L334.182 415.539L341.515 439.683L345.759 438.388Z" fill="white"/>
<path d="M353.71 435.563L357.844 433.905L348.432 410.5L344.312 412.16L353.71 435.563Z" fill="white"/>
<path d="M358.074 405.893L354.107 407.906L365.514 430.4L369.481 428.386L358.074 405.893Z" fill="white"/>
<path d="M367.278 400.465L363.5 402.814L376.833 424.234L380.598 421.885L367.278 400.465Z" fill="white"/>
<path d="M375.972 394.254L372.416 396.921L387.558 417.087L391.114 414.42L375.972 394.254Z" fill="white"/>
<path d="M384.09 387.309L380.781 390.274L397.623 409.053L400.932 406.088L384.09 387.309Z" fill="white"/>
<path d="M391.573 379.682L388.537 382.931L406.948 400.161L409.984 396.921L391.573 379.682Z" fill="white"/>
<path d="M398.361 371.432L395.619 374.935L415.466 390.493L418.21 386.99L398.361 371.432Z" fill="white"/>
<path d="M404.407 362.623L401.979 366.348L423.101 380.129L425.53 376.404L404.407 362.623Z" fill="white"/>
<path d="M409.664 353.32L407.568 357.239L429.806 369.123L431.902 365.205L409.664 353.32Z" fill="white"/>
<path d="M414.086 343.594L412.346 347.683L435.532 357.583L437.283 353.493L414.086 343.594Z" fill="white"/>
<path d="M417.644 333.516L416.258 337.739L440.236 345.585L441.611 341.362L417.644 333.516Z" fill="white"/>
<path d="M419.311 327.497L443.864 333.216L444.866 328.893L420.313 323.174L419.311 327.497Z" fill="white"/>
<path d="M421.441 317.028L446.41 320.584L447.037 316.181L422.068 312.625L421.441 317.028Z" fill="white"/>
<path d="M422.66 306.415L447.842 307.782L448.085 303.347L422.882 301.98L422.66 306.415Z" fill="white"/>
<path d="M422.799 291.29L422.941 295.735L448.163 294.895L448.001 290.461L422.799 291.29Z" fill="white"/>
<path d="M421.768 280.658L422.303 285.073L447.323 282.045L446.808 277.629L421.768 280.658Z" fill="white"/>
<path d="M419.818 270.152L420.729 274.496L445.396 269.303L444.485 264.949L419.818 270.152Z" fill="white"/>
<path d="M385.297 270.17L386.239 273.269L403.808 267.934L402.868 264.836L385.297 270.17Z" fill="white"/>
<path d="M382.562 262.882L383.778 265.889L400.811 259.037L399.607 256.029L382.562 262.882Z" fill="white"/>
<path d="M397.053 250.442L395.587 247.553L379.209 255.859L380.676 258.748L397.053 250.442Z" fill="white"/>
<path d="M375.262 249.162L376.973 251.916L392.559 242.207L390.848 239.453L375.262 249.162Z" fill="white"/>
<path d="M385.425 231.805L370.738 242.829L372.681 245.421L387.367 234.396L385.425 231.805Z" fill="white"/>
<path d="M381.512 227.064L379.348 224.654L365.684 236.914L367.839 239.324L381.512 227.064Z" fill="white"/>
<path d="M375.044 220.27L372.686 218.047L360.135 231.467L362.493 233.69L375.044 220.27Z" fill="white"/>
<path d="M356.68 228.519L368.013 214.063L365.462 212.062L354.129 226.51L356.68 228.519Z" fill="white"/>
<path d="M357.744 206.734L347.713 222.122L350.426 223.882L360.455 208.513L357.744 206.734Z" fill="white"/>
<path d="M349.589 202.092L340.936 218.288L343.789 219.817L352.442 203.621L349.589 202.092Z" fill="white"/>
<path d="M341.066 198.178L333.859 215.07L336.835 216.335L344.042 199.454L341.066 198.178Z" fill="white"/>
<path d="M326.525 212.482L329.603 213.484L335.31 196.032L332.234 195.029L326.525 212.482Z" fill="white"/>
<path d="M318.992 210.532L322.139 211.27L326.31 193.382L323.152 192.645L318.992 210.532Z" fill="white"/>
<path d="M311.32 209.257L314.518 209.701L317.109 191.52L313.911 191.066L311.32 209.257Z" fill="white"/>
<path d="M303.561 208.656L306.798 208.827L307.783 190.484L304.563 190.312L303.561 208.656Z" fill="white"/>
<path d="M295.182 190.369L295.779 208.73L299.017 208.619L298.411 190.258L295.182 190.369Z" fill="white"/>
<path d="M285.834 191.245L288.041 209.471L291.25 209.087L289.052 190.85L285.834 191.245Z" fill="white"/>
<path d="M276.607 192.93L280.385 210.898L283.554 210.231L279.776 192.252L276.607 192.93Z" fill="white"/>
<path d="M267.561 195.409L272.894 212.982L275.992 212.039L270.658 194.467L267.561 195.409Z" fill="white"/>
<path d="M258.771 198.67L265.614 215.717L268.62 214.502L261.767 197.465L258.771 198.67Z" fill="white"/>
<path d="M258.597 219.069L261.486 217.602L253.184 201.221L250.295 202.688L258.597 219.069Z" fill="white"/>
<path d="M251.897 223.02L254.65 221.297L244.943 205.719L242.201 207.43L251.897 223.02Z" fill="white"/>
<path d="M245.567 227.544L248.158 225.602L237.136 210.912L234.545 212.855L245.567 227.544Z" fill="white"/>
<path d="M239.645 232.598L242.054 230.431L229.807 216.766L227.398 218.922L239.645 232.598Z" fill="white"/>
<path d="M234.207 238.152L236.429 235.794L223.011 223.24L220.789 225.598L234.207 238.152Z" fill="white"/>
<path d="M229.263 244.161L231.263 241.609L216.818 230.273L214.818 232.814L229.263 244.161Z" fill="white"/>
<path d="M224.857 250.573L226.635 247.859L211.25 237.828L209.473 240.542L224.857 250.573Z" fill="white"/>
<path d="M221.035 257.347L222.564 254.493L206.36 245.838L204.842 248.692L221.035 257.347Z" fill="white"/>
<path d="M217.815 264.43L219.09 261.454L202.188 254.246L200.924 257.222L217.815 264.43Z" fill="white"/>
<path d="M197.768 266.053L215.216 271.763L216.228 268.684L198.77 262.992L197.768 266.053Z" fill="white"/>
<path d="M195.393 275.136L213.286 279.296L214.015 276.149L196.13 271.988L195.393 275.136Z" fill="white"/>
<path d="M193.822 284.383L212 286.975L212.444 283.777L194.267 281.174L193.822 284.383Z" fill="white"/>
<path d="M193.059 293.731L211.399 294.734L211.57 291.493L193.23 290.502L193.059 293.731Z" fill="white"/>
<path d="M193.014 299.883L193.116 303.113L211.458 302.515L211.363 299.285L193.014 299.883Z" fill="white"/>
<path d="M193.605 309.248L193.99 312.467L212.228 310.259L211.828 307.041L193.605 309.248Z" fill="white"/>
<path d="M195.008 318.521L195.674 321.69L213.639 317.912L212.972 314.742L195.008 318.521Z" fill="white"/>
<path d="M197.213 327.641L198.164 330.739L215.735 325.405L214.784 322.307L197.213 327.641Z" fill="white"/>
<path d="M200.209 336.534L201.425 339.532L218.458 332.689L217.253 329.682L200.209 336.534Z" fill="white"/>
<path d="M203.967 345.126L205.433 348.016L221.811 339.712L220.345 336.822L203.967 345.126Z" fill="white"/>
<path d="M225.763 346.41L224.04 343.656L208.465 353.374L210.176 356.116L225.763 346.41Z" fill="white"/>
<path d="M215.597 363.766L230.283 352.742L228.341 350.15L213.654 361.175L215.597 363.766Z" fill="white"/>
<path d="M219.508 368.495L221.674 370.913L235.337 358.655L233.181 356.246L219.508 368.495Z" fill="white"/>
<path d="M225.98 375.297L228.338 377.52L240.889 364.1L238.532 361.877L225.98 375.297Z" fill="white"/>
<path d="M235.575 383.496L246.908 369.039L244.357 367.039L233.023 381.486L235.575 383.496Z" fill="white"/>
<path d="M243.282 388.833L253.311 373.45L250.599 371.686L240.568 387.062L243.282 388.833Z" fill="white"/>
<path d="M251.425 393.476L260.092 377.279L257.23 375.75L248.576 391.946L251.425 393.476Z" fill="white"/>
<path d="M259.956 397.39L267.163 380.498L264.187 379.229L256.98 396.107L259.956 397.39Z" fill="white"/>
<path d="M265.713 399.534L268.791 400.546L274.497 383.093L271.422 382.082L265.713 399.534Z" fill="white"/>
<path d="M274.713 402.187L277.86 402.916L282.031 385.028L278.873 384.299L274.713 402.187Z" fill="white"/>
<path d="M283.912 404.036L287.11 404.48L289.701 386.321L286.503 385.846L283.912 404.036Z" fill="white"/>
<path d="M293.232 405.086L296.47 405.257L297.455 386.913L294.224 386.742L293.232 405.086Z" fill="white"/>
<path d="M302.004 386.953L302.611 405.314L305.848 405.212L305.242 386.842L302.004 386.953Z" fill="white"/>
<path d="M309.764 386.482L311.97 404.707L315.188 404.323L312.981 386.086L309.764 386.482Z" fill="white"/>
<path d="M317.461 385.333L321.239 403.31L324.416 402.643L320.63 384.664L317.461 385.333Z" fill="white"/>
<path d="M325.021 383.53L330.355 401.103L333.453 400.16L328.119 382.588L325.021 383.53Z" fill="white"/>
<path d="M332.398 381.058L339.25 398.106L342.256 396.901L335.405 379.854L332.398 381.058Z" fill="white"/>
<path d="M342.426 376.502L339.537 377.969L347.842 394.35L350.73 392.883L342.426 376.502Z" fill="white"/>
<path d="M349.124 372.547L346.371 374.258L356.087 389.848L358.84 388.137L349.124 372.547Z" fill="white"/>
<path d="M355.454 368.025L352.863 369.968L363.877 384.658L366.477 382.715L355.454 368.025Z" fill="white"/>
<path d="M361.368 362.969L358.959 365.136L371.217 378.801L373.626 376.645L361.368 362.969Z" fill="white"/>
<path d="M366.814 357.416L364.592 359.774L378.01 372.328L380.232 369.97L366.814 357.416Z" fill="white"/>
<path d="M371.758 351.41L369.758 353.962L384.202 365.297L386.202 362.746L371.758 351.41Z" fill="white"/>
<path d="M376.161 344.994L374.383 347.708L389.774 357.739L391.552 355.025L376.161 344.994Z" fill="white"/>
<path d="M379.988 338.221L378.459 341.075L394.663 349.73L396.181 346.876L379.988 338.221Z" fill="white"/>
<path d="M383.207 331.137L381.932 334.113L398.821 341.321L400.096 338.345L383.207 331.137Z" fill="white"/>
<path d="M384.795 326.877L402.244 332.587L403.239 329.509L385.797 323.816L384.795 326.877Z" fill="white"/>
<path d="M387.008 319.425L404.892 323.585L405.63 320.438L387.746 316.277L387.008 319.425Z" fill="white"/>
<path d="M388.564 311.797L406.742 314.389L407.187 311.191L389.009 308.588L388.564 311.797Z" fill="white"/>
<path d="M389.449 304.072L407.789 305.064L407.96 301.836L389.62 300.834L389.449 304.072Z" fill="white"/>
<path d="M389.549 293.056L389.66 296.297L408.009 295.679L407.909 292.449L389.549 293.056Z" fill="white"/>
<path d="M388.803 285.313L389.198 288.531L407.421 286.324L407.025 283.105L388.803 285.313Z" fill="white"/>
<path d="M387.381 277.66L388.048 280.83L406.012 277.051L405.345 273.873L387.381 277.66Z" fill="white"/>
</g>
</g>
<defs>
<clipPath id="clip0_22_585">
<rect width="600" height="569" fill="white" transform="translate(0 15)"/>
</clipPath>
</defs>
</svg>
