<svg width="134" height="134" viewBox="0 0 134 134" fill="none" xmlns="http://www.w3.org/2000/svg">
<g clip-path="url(#clip0_1_2)">
<path d="M108.527 66.137C108.678 66.2252 108.803 66.3512 108.889 66.5026C108.976 66.654 109.022 66.8255 109.022 67C109.022 67.1745 108.976 67.346 108.889 67.4974C108.803 67.6488 108.678 67.7748 108.527 67.863L41.505 107.118C41.3531 107.207 41.1804 107.254 41.0044 107.255C40.8283 107.256 40.6552 107.21 40.5025 107.122C40.3499 107.035 40.223 106.909 40.1347 106.756C40.0465 106.604 40 106.431 40 106.255V27.745C40 27.569 40.0465 27.3961 40.1347 27.2438C40.223 27.0915 40.3499 26.9652 40.5025 26.8776C40.6552 26.7901 40.8283 26.7444 41.0044 26.7451C41.1804 26.7459 41.3531 26.7931 41.505 26.882L108.527 66.137Z" fill="white"/>
<path d="M67 6C54.9353 6 43.1416 9.57759 33.1102 16.2804C23.0788 22.9831 15.2603 32.51 10.6433 43.6563C6.0264 54.8026 4.8184 67.0677 7.1721 78.9005C9.5258 90.7334 15.3355 101.603 23.8665 110.134C32.3975 118.665 43.2667 124.474 55.0995 126.828C66.9323 129.182 79.1974 127.974 90.3437 123.357C101.49 118.74 111.017 110.921 117.72 100.89C124.422 90.8584 128 79.0647 128 67C127.982 50.8274 121.549 35.3224 110.113 23.8867C98.6776 12.4509 83.1726 6.01826 67 6ZM67 0C80.2513 0 93.2051 3.92948 104.223 11.2915C115.241 18.6536 123.829 29.1176 128.9 41.3602C133.971 53.6029 135.298 67.0743 132.713 80.0711C130.127 93.0678 123.746 105.006 114.376 114.376C105.006 123.746 93.0678 130.127 80.0711 132.713C67.0743 135.298 53.6029 133.971 41.3602 128.9C29.1176 123.829 18.6536 115.241 11.2915 104.223C3.92948 93.2051 0 80.2513 0 67C0 49.2305 7.05891 32.1888 19.6238 19.6238C32.1888 7.05891 49.2305 0 67 0Z" fill="white"/>
</g>
<defs>
<clipPath id="clip0_1_2">
<rect width="134" height="134" fill="white"/>
</clipPath>
</defs>
</svg>
